<svg width="924" height="274" viewBox="0 0 924 274" fill="none" xmlns="http://www.w3.org/2000/svg">
<path d="M889.35 273.973H34.6495C15.8463 273.973 0.461426 258.564 0.461426 239.73V34.2703C0.461426 15.4363 15.846 0.0268555 34.6495 0.0268555H889.35C908.153 0.0268555 923.538 15.4363 923.538 34.2703V239.73C923.538 258.564 908.153 273.973 889.35 273.973" fill="black"/>
<path d="M889.35 0.0268555H34.6495C15.8463 0.0268555 0.461426 15.4363 0.461426 34.2703V239.73C0.461426 258.564 15.846 273.973 34.6495 273.973H889.35C908.153 273.973 923.538 258.564 923.538 239.73V34.2703C923.538 15.4363 908.154 0.0268555 889.35 0.0268555H889.35ZM889.35 5.50561C905.186 5.50561 918.068 18.4115 918.068 34.2703V239.73C918.068 255.592 905.186 268.497 889.35 268.497H34.6495C18.8165 268.497 5.93157 255.592 5.93157 239.73V34.2703C5.93157 18.4115 18.8162 5.50592 34.6495 5.50592H889.35" fill="#A6A6A6"/>
<path d="M324.69 70.1805C324.69 75.9184 322.993 80.4876 319.596 83.8961C315.737 87.9492 310.707 89.9773 304.524 89.9773C298.602 89.9773 293.568 87.9227 289.427 83.8078C285.28 79.696 283.21 74.597 283.21 68.5134C283.21 62.4271 285.28 57.3312 289.427 53.216C293.568 49.1045 298.602 47.0469 304.524 47.0469C307.462 47.0469 310.275 47.6225 312.945 48.7702C315.616 49.9208 317.758 51.448 319.361 53.3607L315.755 56.9748C313.039 53.7245 309.3 52.1006 304.524 52.1006C300.205 52.1006 296.471 53.6205 293.319 56.6621C290.167 59.7068 288.592 63.6552 288.592 68.5134C288.592 73.372 290.167 77.3201 293.319 80.3651C296.471 83.4067 300.205 84.9263 304.524 84.9263C309.105 84.9263 312.924 83.3984 315.982 80.3383C317.967 78.3447 319.115 75.5737 319.422 72.0152H304.523V67.0794H324.404C324.596 68.1527 324.689 69.1826 324.689 70.1805" fill="white"/>
<path d="M324.69 70.1805H324.006C324.001 75.7876 322.366 80.1426 319.112 83.412L319.105 83.4176L319.102 83.4231C315.366 87.3364 310.562 89.2841 304.523 89.2924C298.76 89.2841 293.936 87.3152 289.908 83.3237C285.889 79.3242 283.901 74.4416 283.894 68.5135C283.901 62.5826 285.889 57.7028 289.908 53.7061C293.936 49.7118 298.76 47.7401 304.523 47.7318C307.374 47.7318 310.087 48.2889 312.675 49.3988C315.266 50.5173 317.313 51.983 318.837 53.8027L319.361 53.3607L318.878 52.8766L315.272 56.4932L315.755 56.9749L316.282 56.5366C313.439 53.1253 309.449 51.4056 304.524 51.4158C300.045 51.4102 296.105 53.0132 292.846 56.1703C289.556 59.3375 287.903 63.5081 287.908 68.5135C287.903 73.5192 289.556 77.6895 292.846 80.857C296.105 84.0141 300.045 85.6168 304.523 85.6112C309.256 85.6195 313.29 84.0113 316.466 80.8225C318.586 78.6926 319.789 75.7424 320.104 72.0741L320.167 71.3304H305.207V67.7643H324.404V67.0795L323.73 67.1998C323.918 68.2383 324.006 69.2251 324.006 70.1805H325.374C325.374 69.1395 325.277 68.0696 325.077 66.957L324.976 66.3946H303.84V72.7001H319.422V72.0153L318.741 71.9565C318.44 75.4026 317.344 77.9976 315.499 79.8545C312.561 82.7863 308.955 84.2332 304.524 84.2415C300.365 84.236 296.837 82.802 293.795 79.8727C290.782 76.9539 289.284 73.2274 289.276 68.5135C289.284 63.7996 290.782 60.0731 293.795 57.1543C296.837 54.225 300.365 52.791 304.524 52.7855C309.147 52.7965 312.639 54.3266 315.232 57.4165L315.713 57.989L319.845 53.8452L320.288 53.4013L319.885 52.9218C318.205 50.9159 315.966 49.3237 313.215 48.1417C310.459 46.9561 307.55 46.3621 304.524 46.3621C298.445 46.3568 293.199 48.4969 288.944 52.7322C284.674 56.9592 282.521 62.2723 282.527 68.5135C282.521 74.7519 284.674 80.0681 288.947 84.2975C293.199 88.53 298.445 90.6677 304.524 90.6621C310.854 90.6677 316.106 88.5617 320.091 84.3696L319.596 83.8962L320.079 84.3807C323.621 80.8358 325.378 76.0471 325.374 70.1805H324.69H324.69ZM356.207 53.0157H337.523V66.0447H354.372V70.9823H337.523V84.0113H356.207V89.0594H332.256V47.9675H356.207V53.0157" fill="white"/>
<path d="M356.207 53.0157V52.3309H336.84V66.7295H353.688V70.2957L336.839 70.2975V84.6962H355.523V88.3746H332.94V48.6524H355.523V53.0157H356.207V52.3309V53.0157H356.89V47.2827H331.573V89.7443H356.89V83.3265H338.207V71.6672H355.056V65.3598H338.207V53.7006H356.89V53.0157H356.207V53.0157ZM378.437 89.0598H373.162V53.0154H361.703V47.9673H389.895V53.0154H378.437V89.0592" fill="white"/>
<path d="M378.437 89.0598V88.3746H373.845V52.3309H362.387V48.6527H389.211V52.3309H377.753V89.0595H378.437V88.3746V89.0595H379.121V53.7006H390.579V47.2827H361.02V53.7003H372.478V89.744H379.121V89.0592H378.437V89.0598ZM410.293 89.0598V47.9673H415.563V89.0592H410.293" fill="white"/>
<path d="M410.293 89.0598H410.977V48.6524H414.879V88.3746H410.293V89.0595H410.977H410.293V89.7443H416.246V47.2827H409.609V89.7443H410.293V89.0595V89.0598ZM438.947 89.0598H433.672V53.0154H422.214V47.9673H450.405V53.0154H438.947V89.0592" fill="white"/>
<path d="M438.947 89.0597V88.3746H434.355V52.3308H422.898V48.6526H449.722V52.3308H438.263V89.0594H438.947V88.3746V89.0594H439.631V53.7005H451.089V47.2826H421.53V53.7002H432.988V89.7439H439.631V89.0591H438.947V89.0597ZM477.585 80.3091C480.621 83.388 484.337 84.926 488.731 84.926C493.125 84.926 496.842 83.388 499.874 80.3091C502.914 77.2299 504.436 73.2938 504.436 68.5134C504.436 63.7334 502.914 59.7973 499.874 56.7181C496.842 53.6389 493.125 52.1006 488.731 52.1006C484.337 52.1006 480.621 53.6389 477.585 56.7181C474.553 59.7973 473.031 63.7331 473.031 68.5134C473.031 73.2938 474.553 77.2299 477.585 80.3091ZM503.773 83.749C499.74 87.9033 494.724 89.9773 488.731 89.9773C482.732 89.9773 477.718 87.9033 473.694 83.749C469.657 79.5993 467.649 74.5198 467.649 68.5134C467.649 62.5071 469.657 57.4267 473.694 53.2779C477.718 49.1226 482.732 47.0469 488.731 47.0469C494.693 47.0469 499.695 49.1337 503.747 53.3047C507.793 57.4753 509.818 62.5447 509.818 68.5134C509.818 74.5198 507.798 79.5993 503.773 83.749Z" fill="white"/>
<path d="M477.585 80.3091L477.099 80.7905C480.248 83.9928 484.177 85.6195 488.731 85.6112C493.282 85.6195 497.216 83.9928 500.36 80.7905C503.53 77.5852 505.125 73.4385 505.12 68.5135C505.124 63.5888 503.53 59.4418 500.36 56.2365C497.216 53.0342 493.282 51.4078 488.731 51.4158C484.177 51.4078 480.248 53.0342 477.099 56.2365C473.936 59.4418 472.339 63.5888 472.347 68.5135C472.339 73.4382 473.936 77.5852 477.099 80.7905L477.585 80.3091L478.071 79.8274C475.171 76.8711 473.72 73.1523 473.715 68.5135C473.72 63.875 475.171 60.1562 478.071 57.1996C480.998 54.2438 484.494 52.7938 488.731 52.7858C492.964 52.7938 496.468 54.2438 499.388 57.1996C502.294 60.1562 503.744 63.875 503.749 68.5135C503.744 73.152 502.294 76.8711 499.388 79.8274C496.468 82.7835 492.964 84.2332 488.731 84.2412C484.494 84.2332 480.998 82.7835 478.071 79.8274L477.585 80.3091ZM503.773 83.7491L503.285 83.2732C499.364 87.2967 494.569 89.2845 488.731 89.2925C482.889 89.2841 478.095 87.2967 474.182 83.2732L474.163 83.2517L474.182 83.2732C470.269 79.2359 468.338 74.3672 468.333 68.5135C468.338 62.6598 470.269 57.7911 474.182 53.7541C478.095 49.7303 482.889 47.7401 488.731 47.7321C494.532 47.7401 499.315 49.7386 503.258 53.7833C507.184 57.8392 509.126 62.7002 509.134 68.5135C509.126 74.3672 507.19 79.2359 503.285 83.2732L503.773 83.7491L504.265 84.2249C508.41 79.961 510.506 74.6719 510.502 68.5135C510.507 62.3902 508.402 57.1118 504.238 52.8289C500.072 48.529 494.853 46.3547 488.731 46.3621C482.577 46.3547 477.342 48.5188 473.202 52.8021V52.799C469.049 57.066 466.96 62.3551 466.965 68.5135C466.96 74.6719 469.049 79.961 473.202 84.2277L473.22 84.2471L473.202 84.2249C477.342 88.5082 482.577 90.6677 488.731 90.6621C494.882 90.6677 500.117 88.5082 504.265 84.2249L503.773 83.7491V83.7491ZM517.216 89.0598V47.9672H523.632L543.57 79.9339H543.798L543.57 72.015V47.9672H548.846V89.0591H543.343L522.483 55.5433H522.256L522.483 63.465V89.0591H517.216" fill="white"/>
<path d="M517.216 89.0598H517.9V48.6524H523.252L543.191 80.6191H544.5L544.254 72.0051V48.6527H548.162V88.3746H543.723L522.863 54.8588H521.554L521.799 63.4764V88.3746H517.216V89.0595H517.9H517.216V89.7443H523.167V63.4546L522.94 55.5252L522.256 55.5436V56.2285H522.483V55.5436L521.903 55.9078L542.964 89.7443H549.529V47.2827H542.887V72.0233L543.114 79.9527L543.797 79.9343V79.2494H543.57V79.9343L544.15 79.5708L524.011 47.2827H516.533V89.7443H517.217V89.0595L517.216 89.0598ZM731.648 205.487H744.407V119.87H731.647L731.648 205.487ZM846.567 150.712L831.942 187.83H831.504L816.324 150.711H802.581L825.343 202.592L812.366 231.45H825.678L860.755 150.711L846.567 150.712ZM774.212 195.763C770.027 195.763 764.201 193.67 764.201 188.491C764.201 181.883 771.463 179.35 777.726 179.35C783.34 179.35 785.972 180.561 789.384 182.215C788.393 190.144 781.576 195.763 774.212 195.763V195.763ZM775.75 148.838C766.512 148.838 756.947 152.915 752.988 161.947L764.311 166.682C766.731 161.947 771.237 160.403 775.969 160.403C782.567 160.403 789.275 164.371 789.384 171.42V172.301C787.073 170.979 782.13 168.996 776.078 168.996C763.873 168.996 751.442 175.714 751.442 188.271C751.442 199.727 761.453 207.108 772.666 207.108C781.248 207.108 785.972 203.253 788.947 198.737H789.384V205.345H801.699V172.519C801.699 157.322 790.376 148.838 775.75 148.838V148.838ZM696.899 161.133H678.752V131.786H696.899C706.438 131.786 711.853 139.697 711.853 146.46C711.853 153.094 706.437 161.133 696.899 161.133ZM696.571 119.87H666V205.487H678.752V173.049H696.571C710.711 173.049 724.612 162.795 724.612 146.46C724.612 130.125 710.711 119.87 696.571 119.87V119.87ZM529.863 195.778C521.049 195.778 513.669 188.387 513.669 178.234C513.669 167.975 521.049 160.47 529.863 160.47C538.565 160.47 545.395 167.975 545.395 178.234C545.395 188.387 538.565 195.778 529.863 195.778H529.863ZM544.513 155.505H544.072C541.209 152.086 535.699 148.996 528.76 148.996C514.219 148.996 500.891 161.795 500.891 178.234C500.891 194.564 514.219 207.253 528.76 207.253C535.699 207.253 541.209 204.162 544.072 200.634H544.513V204.826C544.513 215.972 538.565 221.929 528.982 221.929C521.161 221.929 516.314 216.3 514.329 211.557L503.205 216.191C506.399 223.914 514.882 233.404 528.982 233.404C543.963 233.404 556.631 224.575 556.631 203.06V150.762H544.513V155.505ZM565.443 205.487H578.221V119.867H565.443V205.487ZM597.058 177.242C596.727 165.986 605.76 160.251 612.259 160.251C617.329 160.251 621.624 162.787 623.053 166.431L597.058 177.242ZM636.714 167.533C634.294 161.021 626.909 148.996 611.818 148.996C596.837 148.996 584.39 160.802 584.39 178.124C584.39 194.454 596.727 207.253 613.25 207.253C626.581 207.253 634.294 199.087 637.487 194.344L627.572 187.723C624.27 192.578 619.75 195.778 613.25 195.778C606.751 195.778 602.126 192.798 599.15 186.952L638.034 170.842L636.714 167.533ZM326.915 157.934V170.291H356.436C355.555 177.242 353.241 182.317 349.716 185.848C345.421 190.152 338.701 194.896 326.914 194.896C308.738 194.896 294.529 180.221 294.529 162.016C294.529 143.811 308.738 129.135 326.915 129.135C336.719 129.135 343.877 132.998 349.166 137.963L357.868 129.247C350.488 122.184 340.683 116.778 326.915 116.778C302.018 116.778 281.089 137.08 281.089 162.016C281.089 186.952 302.018 207.253 326.915 207.253C340.355 207.253 350.488 202.841 358.418 194.564C366.57 186.399 369.105 174.925 369.105 165.658C369.105 162.787 368.885 160.141 368.442 157.934H326.915ZM402.668 195.778C393.853 195.778 386.252 188.496 386.252 178.124C386.252 167.642 393.853 160.47 402.668 160.47C411.479 160.47 419.08 167.642 419.08 178.124C419.08 188.496 411.479 195.778 402.668 195.778ZM402.668 148.996C386.583 148.996 373.474 161.243 373.474 178.124C373.474 194.896 386.583 207.253 402.668 207.253C418.749 207.253 431.858 194.896 431.858 178.124C431.858 161.243 418.749 148.996 402.668 148.996ZM466.348 195.778C457.537 195.778 449.935 188.496 449.935 178.124C449.935 167.642 457.537 160.47 466.348 160.47C475.159 160.47 482.761 167.642 482.761 178.124C482.761 188.496 475.159 195.778 466.348 195.778H466.348ZM466.348 148.996C450.264 148.996 437.157 161.243 437.157 178.124C437.157 194.896 450.264 207.253 466.348 207.253C482.43 207.253 495.539 194.896 495.539 178.124C495.539 161.243 482.43 148.996 466.348 148.996H466.348Z" fill="white"/>
<path d="M72.3152 52.1541C70.0206 54.2277 68.6509 57.6864 68.6509 62.2775V61.2396V212.74V211.742C68.6509 215.982 69.8257 219.256 71.8153 221.365L72.3232 221.852V221.854C73.9336 223.309 75.9986 224.082 78.3652 224.08C80.6777 224.08 83.2795 223.341 86.0253 221.782L185.275 165.299L219.366 145.895C223.696 143.432 226.126 140.253 226.533 137.016V137.003C226.126 133.758 223.696 130.582 219.366 128.118L185.272 108.717L86.0256 52.2341C83.2739 50.6721 80.6703 49.9309 78.3517 49.9309C75.9878 49.9309 73.9256 50.7013 72.3158 52.1541H72.3152Z" fill="#00C1FF"/>
<path d="M72.3235 221.852L71.8153 221.365C69.8257 219.256 68.6509 215.982 68.6509 211.742V212.74V61.2772V62.2775C68.6509 57.6864 70.0206 54.2277 72.3152 52.1541L157.032 137.006L72.3235 221.852Z" fill="url(#paint0_linear_726_11762)"/>
<path d="M185.274 165.299L157.032 137.006L185.272 108.717L219.366 128.118C223.696 130.582 226.126 133.758 226.533 137.003V137.016C226.126 140.253 223.696 143.432 219.366 145.895L185.275 165.299" fill="url(#paint1_linear_726_11762)"/>
<path d="M78.3651 224.08C75.9988 224.082 73.9338 223.309 72.3237 221.854V221.851L157.032 137.005L185.275 165.299L86.0252 221.782C83.2794 223.341 80.6776 224.08 78.3651 224.08Z" fill="url(#paint2_linear_726_11762)"/>
<path d="M157.032 137.006L72.3149 52.1544C73.9253 50.7016 75.9876 49.9312 78.3511 49.9312C80.6697 49.9312 83.2737 50.672 86.0251 52.2344L185.272 108.717L157.032 137.006" fill="url(#paint3_linear_726_11762)"/>
<path d="M78.368 225.083C76.0016 225.083 73.9339 224.31 72.3235 222.854L72.3207 222.857C72.3141 222.85 72.307 222.844 72.2995 222.838L71.859 222.407C71.8452 222.394 71.8322 222.378 71.8159 222.362L72.3238 221.854C73.9342 223.309 75.9989 224.082 78.3658 224.079C80.678 224.079 83.2798 223.341 86.0256 221.782L185.275 165.299L185.911 165.936L185.267 166.302L86.0253 222.782C83.5229 224.203 81.1427 224.944 78.9928 225.067C78.7847 225.077 78.5763 225.082 78.368 225.082" fill="url(#paint4_linear_726_11762)"/>
<path d="M71.8153 222.363C69.8257 220.254 68.6509 216.982 68.6509 212.74V211.742C68.6509 215.982 69.8257 219.256 71.8153 221.365L72.3232 221.852L71.8153 222.363" fill="url(#paint5_linear_726_11762)"/>
<path d="M185.91 165.936L185.274 165.299L219.366 145.895C223.696 143.432 226.126 140.253 226.533 137.016C226.533 138.204 226.268 139.392 225.742 140.548C224.681 142.878 222.556 145.08 219.366 146.896L185.91 165.936" fill="url(#paint6_linear_726_11762)"/>
<path d="M226.532 137.003C226.126 133.758 223.695 130.583 219.366 128.118L185.271 108.717L185.907 108.08H185.91L219.366 127.12C224.139 129.839 226.53 133.42 226.532 137.003" fill="url(#paint7_linear_726_11762)"/>
<path d="M68.6509 62.2776V61.2311C68.6509 60.8537 68.661 60.4847 68.6804 60.1264V60.1101C68.6804 60.1052 68.6804 60.0999 68.6823 60.0944V60.0541C68.8882 56.4021 70.0206 53.5534 71.8153 51.6513L72.3152 52.1539C70.0206 54.2278 68.6509 57.6865 68.6509 62.2776Z" fill="url(#paint8_linear_726_11762)"/>
<path d="M185.272 108.718L86.0251 52.234C83.2737 50.6719 80.6701 49.9311 78.3515 49.9311C75.9876 49.9311 73.9254 50.7015 72.3153 52.1543L71.8154 51.6513C71.9715 51.4858 72.1338 51.3262 72.3017 51.1727C72.307 51.1672 72.3153 51.1616 72.3205 51.1564C73.918 49.7147 75.9584 48.9443 78.301 48.9304H78.3515C80.6701 48.9304 83.2737 49.6716 86.0251 51.2343L185.91 108.078L185.907 108.08L185.272 108.718" fill="url(#paint9_linear_726_11762)"/>
<defs>
<linearGradient id="paint0_linear_726_11762" x1="122.79" y1="59.6763" x2="49.7832" y2="132.801" gradientUnits="userSpaceOnUse">
<stop stop-color="#00A0FF"/>
<stop offset="0.00657" stop-color="#00A1FF"/>
<stop offset="0.2601" stop-color="#00BEFF"/>
<stop offset="0.5122" stop-color="#00D2FF"/>
<stop offset="0.7604" stop-color="#00DFFF"/>
<stop offset="1" stop-color="#00E3FF"/>
</linearGradient>
<linearGradient id="paint1_linear_726_11762" x1="231.808" y1="136.517" x2="66.3581" y2="136.517" gradientUnits="userSpaceOnUse">
<stop stop-color="#FFE000"/>
<stop offset="0.4087" stop-color="#FFBD00"/>
<stop offset="0.7754" stop-color="#FFA500"/>
<stop offset="1" stop-color="#FF9C00"/>
</linearGradient>
<linearGradient id="paint2_linear_726_11762" x1="170.28" y1="163.906" x2="46.5649" y2="286.915" gradientUnits="userSpaceOnUse">
<stop stop-color="#FF3A44"/>
<stop offset="1" stop-color="#C31162"/>
</linearGradient>
<linearGradient id="paint3_linear_726_11762" x1="50.481" y1="39.5747" x2="105.618" y2="94.4817" gradientUnits="userSpaceOnUse">
<stop stop-color="#32A071"/>
<stop offset="0.0685" stop-color="#2DA771"/>
<stop offset="0.4762" stop-color="#15CF74"/>
<stop offset="0.8009" stop-color="#06E775"/>
<stop offset="1" stop-color="#00F076"/>
</linearGradient>
<linearGradient id="paint4_linear_726_11762" x1="170.219" y1="183.531" x2="71.1414" y2="282.769" gradientUnits="userSpaceOnUse">
<stop stop-color="#CC2E36"/>
<stop offset="1" stop-color="#9C0E4E"/>
</linearGradient>
<linearGradient id="paint5_linear_726_11762" x1="79.9364" y1="59.6762" x2="15.6185" y2="124.099" gradientUnits="userSpaceOnUse">
<stop stop-color="#008DE0"/>
<stop offset="0.00657" stop-color="#008DE0"/>
<stop offset="0.2601" stop-color="#00A7E0"/>
<stop offset="0.5122" stop-color="#00B8E0"/>
<stop offset="0.7604" stop-color="#00C4E0"/>
<stop offset="1" stop-color="#00C7E0"/>
</linearGradient>
<linearGradient id="paint6_linear_726_11762" x1="231.808" y1="137.01" x2="66.358" y2="137.01" gradientUnits="userSpaceOnUse">
<stop stop-color="#E0C500"/>
<stop offset="0.4087" stop-color="#E0A600"/>
<stop offset="0.7754" stop-color="#E09100"/>
<stop offset="1" stop-color="#E08900"/>
</linearGradient>
<linearGradient id="paint7_linear_726_11762" x1="231.808" y1="137.01" x2="66.3584" y2="137.01" gradientUnits="userSpaceOnUse">
<stop stop-color="#FFE840"/>
<stop offset="0.4087" stop-color="#FFCE40"/>
<stop offset="0.7754" stop-color="#FFBC40"/>
<stop offset="1" stop-color="#FFB540"/>
</linearGradient>
<linearGradient id="paint8_linear_726_11762" x1="79.8666" y1="59.7928" x2="17.9171" y2="119.154" gradientUnits="userSpaceOnUse">
<stop stop-color="#40B8FF"/>
<stop offset="0.00657" stop-color="#40B9FF"/>
<stop offset="0.2601" stop-color="#40CEFF"/>
<stop offset="0.5122" stop-color="#40DDFF"/>
<stop offset="0.7604" stop-color="#40E7FF"/>
<stop offset="1" stop-color="#40EAFF"/>
</linearGradient>
<linearGradient id="paint9_linear_726_11762" x1="50.3576" y1="57.5191" x2="94.6001" y2="101.834" gradientUnits="userSpaceOnUse">
<stop stop-color="#65B895"/>
<stop offset="0.0685" stop-color="#62BD95"/>
<stop offset="0.4762" stop-color="#50DB97"/>
<stop offset="0.8009" stop-color="#44ED98"/>
<stop offset="1" stop-color="#40F498"/>
</linearGradient>
</defs>
</svg>
