<svg width="15" height="17" viewBox="0 0 15 17" fill="none" xmlns="http://www.w3.org/2000/svg">
<g opacity="0.3" clip-path="url(#clip0_404_251)">
<path d="M7.46656 8.15626C9.35169 8.15626 10.8799 6.62805 10.8799 4.74292C10.8799 2.85779 9.35169 1.32959 7.46656 1.32959C5.58142 1.32959 4.05322 2.85779 4.05322 4.74292C4.05322 6.62805 5.58142 8.15626 7.46656 8.15626Z" fill="#303948"/>
<path d="M8.19025 8.83887H6.74299C5.89402 8.84155 5.05388 9.01143 4.27055 9.3388C3.48723 9.66618 2.77606 10.1446 2.17764 10.7469C1.57922 11.3491 1.10528 12.0633 0.782878 12.8486C0.460475 13.634 0.295923 14.4752 0.298617 15.3242C0.298617 15.4147 0.334578 15.5015 0.398591 15.5656C0.462603 15.6296 0.549423 15.6655 0.63995 15.6655H14.2933C14.388 15.6569 14.476 15.6126 14.5393 15.5417C14.6027 15.4707 14.6367 15.3783 14.6346 15.2832C14.631 13.5752 13.9509 11.9381 12.7431 10.7304C11.5354 9.52259 9.8983 8.84247 8.19025 8.83887V8.83887Z" fill="#303948"/>
</g>
<defs>
<clipPath id="clip0_404_251">
<rect width="14.9333" height="16" fill="white" transform="translate(0 0.492188)"/>
</clipPath>
</defs>
</svg>
