<svg width="16" height="17" viewBox="0 0 16 17" fill="none" xmlns="http://www.w3.org/2000/svg">
<g opacity="0.3">
<path d="M14.6666 2.49202H12.6666V1.82536C12.6666 1.64855 12.5964 1.47898 12.4714 1.35395C12.3463 1.22893 12.1768 1.15869 12 1.15869C11.8232 1.15869 11.6536 1.22893 11.5286 1.35395C11.4035 1.47898 11.3333 1.64855 11.3333 1.82536V2.49202H8.66663V1.82536C8.66663 1.64855 8.59639 1.47898 8.47137 1.35395C8.34635 1.22893 8.17678 1.15869 7.99996 1.15869C7.82315 1.15869 7.65358 1.22893 7.52856 1.35395C7.40354 1.47898 7.3333 1.64855 7.3333 1.82536V2.49202H4.66663V1.82536C4.66663 1.64855 4.59639 1.47898 4.47137 1.35395C4.34634 1.22893 4.17677 1.15869 3.99996 1.15869C3.82315 1.15869 3.65358 1.22893 3.52856 1.35395C3.40353 1.47898 3.33329 1.64855 3.33329 1.82536V2.49202H1.33329C1.15648 2.49202 0.986913 2.56226 0.861888 2.68729C0.736864 2.81231 0.666626 2.98188 0.666626 3.15869V6.49202H15.3333V3.15869C15.3333 2.98188 15.2631 2.81231 15.138 2.68729C15.013 2.56226 14.8434 2.49202 14.6666 2.49202V2.49202Z" fill="#303948"/>
<path d="M0.666626 15.1585C0.666626 15.3354 0.736864 15.5049 0.861888 15.6299C0.986913 15.755 1.15648 15.8252 1.33329 15.8252H14.6666C14.8434 15.8252 15.013 15.755 15.138 15.6299C15.2631 15.5049 15.3333 15.3354 15.3333 15.1585V7.8252H0.666626V15.1585Z" fill="#303948"/>
</g>
</svg>
