<svg width="26" height="26" viewBox="0 0 26 26" fill="none" xmlns="http://www.w3.org/2000/svg">
<path opacity="0.1" fill-rule="evenodd" clip-rule="evenodd" d="M13 26C5.83238 26 0 20.1686 0 13C0 5.83238 5.83238 0 13 0C20.1686 0 26 5.83238 26 13C26 20.1686 20.1686 26 13 26Z" fill="#922A41"/>
<path fill-rule="evenodd" clip-rule="evenodd" d="M17.6614 9.54276C18.1074 9.98876 18.1074 10.7119 17.6614 11.1579L12.3622 16.4571C12.148 16.6713 11.8576 16.7916 11.5547 16.7916C11.2518 16.7916 10.9613 16.6713 10.7471 16.4571L8.33841 14.0484C7.89241 13.6024 7.89241 12.8792 8.33841 12.4332C8.78442 11.9872 9.50753 11.9872 9.95354 12.4332L11.5547 14.0344L16.0463 9.54276C16.4923 9.09675 17.2154 9.09675 17.6614 9.54276Z" fill="#922A41"/>
</svg>
